<?xml version="1.0" standalone="no"?>
<!DOCTYPE svg PUBLIC "-//W3C//DTD SVG 20010904//EN"
 "http://www.w3.org/TR/2001/REC-SVG-20010904/DTD/svg10.dtd">
<svg version="1.0" xmlns="http://www.w3.org/2000/svg"
 width="700.000000pt" height="700.000000pt" viewBox="0 0 700.000000 700.000000"
 preserveAspectRatio="xMidYMid meet">
<metadata>
Created by potrace 1.14, written by Peter Selinger 2001-2017
</metadata>
<g transform="translate(0.000000,700.000000) scale(0.100000,-0.100000)"
fill="#000000" stroke="none">
<path d="M3428 6615 c-1 -1 -39 -5 -83 -8 -44 -3 -93 -9 -110 -12 -16 -3 -64
-13 -105 -21 -193 -38 -440 -141 -606 -253 -115 -77 -266 -219 -350 -330 -69
-91 -196 -336 -233 -451 -28 -88 -81 -322 -87 -390 -3 -30 -7 -68 -10 -85 -3
-16 -7 -169 -10 -340 -7 -449 -5 -440 -110 -447 -59 -4 -69 -7 -90 -33 -32
-40 -48 -137 -41 -253 7 -112 10 -133 42 -263 38 -148 118 -371 216 -595 l40
-92 49 3 49 3 10 -47 c6 -25 17 -84 26 -131 19 -109 42 -222 50 -250 1 -3 5
-18 9 -35 55 -230 171 -422 404 -667 53 -55 63 -70 57 -90 -4 -13 -11 -27 -15
-33 -8 -10 -67 -178 -77 -218 -19 -79 -7 -322 22 -458 9 -41 21 -94 26 -118 5
-24 22 -69 38 -101 20 -39 26 -61 19 -68 -7 -7 -5 -10 7 -9 10 1 20 -4 23 -12
3 -9 0 -11 -9 -6 -8 5 -11 4 -6 -1 5 -5 12 -9 17 -9 12 0 79 -93 72 -100 -4
-4 -1 -5 7 -3 8 2 20 -8 28 -22 7 -14 13 -21 13 -15 0 5 15 -6 33 -25 19 -19
42 -40 53 -47 10 -6 18 -16 16 -23 -1 -6 2 -8 8 -5 6 4 19 0 28 -8 23 -20 94
-57 164 -86 34 -13 55 -28 51 -34 -3 -6 -1 -7 6 -3 6 4 37 0 69 -10 31 -9 64
-18 72 -19 8 -1 27 -5 41 -8 15 -3 53 -9 84 -12 38 -5 52 -10 44 -16 -10 -6
-10 -9 -2 -9 6 0 14 4 18 10 9 15 65 7 62 -10 -1 -8 6 -16 16 -18 9 -2 17 1
17 7 0 6 -7 8 -15 5 -10 -4 -13 -2 -10 8 8 20 35 19 35 -1 0 -13 2 -13 9 -3
12 19 59 22 66 4 3 -10 0 -12 -10 -8 -8 3 -15 1 -15 -5 0 -6 8 -9 18 -7 9 2
16 10 15 19 -2 10 6 15 25 17 21 1 23 0 12 -8 -8 -5 -10 -10 -4 -10 5 0 14 4
20 10 5 5 27 12 49 15 74 11 122 22 134 30 6 3 15 -3 21 -12 11 -17 11 -17 6
0 -5 17 5 26 36 31 7 1 19 6 27 10 11 7 13 5 8 -8 -4 -10 -3 -15 3 -11 6 3 10
12 10 18 1 7 26 24 58 40 31 15 48 20 38 12 -11 -8 -15 -15 -8 -15 6 0 18 10
26 22 9 12 16 18 16 13 0 -6 4 -5 8 2 4 6 24 23 43 36 28 19 40 22 55 14 15
-8 17 -7 7 3 -9 10 -6 17 15 34 14 12 30 21 33 21 4 0 11 4 16 9 5 6 2 6 -7 1
-13 -8 -13 -6 -1 8 14 18 36 13 25 -5 -4 -7 -2 -8 5 -4 6 4 9 12 5 17 -7 12
15 41 27 33 5 -3 6 3 2 12 -5 14 -3 16 11 11 10 -4 15 -3 11 3 -3 6 -1 10 6
10 7 0 10 3 6 6 -8 8 25 44 35 38 5 -3 7 -1 6 4 -4 12 63 102 76 102 5 0 7 3
3 6 -3 4 4 27 17 53 23 45 62 159 71 210 3 14 7 37 10 51 19 82 9 301 -20 433
-8 41 -55 178 -70 206 -12 23 -7 30 100 135 161 159 264 323 345 552 17 49 33
96 36 104 19 74 44 183 49 220 3 25 8 52 10 60 2 8 7 44 10 80 4 36 9 67 11
69 2 2 19 5 39 6 20 1 45 11 58 23 18 18 100 168 128 237 44 107 99 290 113
375 3 19 8 45 10 56 28 138 39 439 17 491 -15 36 -52 53 -117 53 -61 0 -84 27
-78 89 13 137 18 450 9 571 -17 220 -62 449 -120 601 -44 114 -149 320 -204
399 -75 107 -214 259 -314 343 -151 128 -385 248 -547 282 -99 21 -170 32
-270 40 -91 7 -307 15 -312 10z"/>
<path d="M4456 782 c-3 -5 1 -9 9 -9 8 0 12 4 9 9 -3 4 -7 8 -9 8 -2 0 -6 -4
-9 -8z"/>
<path d="M2555 771 c-3 -5 -2 -12 3 -15 5 -3 9 1 9 9 0 17 -3 19 -12 6z"/>
<path d="M4390 761 c0 -6 4 -13 10 -16 6 -3 7 1 4 9 -7 18 -14 21 -14 7z"/>
<path d="M4349 723 c-13 -16 -12 -17 4 -4 16 13 21 21 13 21 -2 0 -10 -8 -17
-17z"/>
<path d="M2576 698 c3 -5 10 -6 15 -3 13 9 11 12 -6 12 -8 0 -12 -4 -9 -9z"/>
<path d="M2615 700 c-3 -5 -1 -10 4 -10 6 0 11 5 11 10 0 6 -2 10 -4 10 -3 0
-8 -4 -11 -10z"/>
<path d="M2675 651 c-3 -5 -2 -12 3 -15 5 -3 9 1 9 9 0 17 -3 19 -12 6z"/>
<path d="M4302 644 c10 -10 20 -16 22 -13 3 3 -5 11 -17 18 -21 13 -21 12 -5
-5z"/>
<path d="M4355 600 c3 -5 8 -10 11 -10 2 0 4 5 4 10 0 6 -5 10 -11 10 -5 0 -7
-4 -4 -10z"/>
<path d="M2710 596 c0 -2 8 -10 18 -17 15 -13 16 -12 3 4 -13 16 -21 21 -21
13z"/>
<path d="M4201 581 c-8 -5 -9 -11 -3 -15 5 -3 12 1 16 9 6 17 6 18 -13 6z"/>
<path d="M4339 588 c-5 -18 -6 -38 -1 -34 7 8 12 36 6 36 -2 0 -4 -1 -5 -2z"/>
<path d="M2750 536 c7 -7 13 -7 20 0 6 6 3 10 -10 10 -13 0 -16 -4 -10 -10z"/>
<path d="M4295 540 c3 -5 8 -10 11 -10 2 0 4 5 4 10 0 6 -5 10 -11 10 -5 0 -7
-4 -4 -10z"/>
<path d="M2817 519 c4 -13 8 -18 11 -10 2 7 -1 18 -6 23 -8 8 -9 4 -5 -13z"/>
<path d="M2846 517 c3 -10 9 -15 12 -12 3 3 0 11 -7 18 -10 9 -11 8 -5 -6z"/>
<path d="M4095 519 c-4 -6 -5 -12 -2 -15 2 -3 7 2 10 11 7 17 1 20 -8 4z"/>
<path d="M4190 522 c0 -5 7 -9 15 -9 8 0 12 4 9 9 -3 4 -9 8 -15 8 -5 0 -9 -4
-9 -8z"/>
<path d="M4255 499 c-3 -4 2 -6 10 -5 21 3 28 13 10 13 -9 0 -18 -4 -20 -8z"/>
<path d="M2879 495 c-1 -3 -2 -8 -3 -12 -1 -5 -5 -15 -10 -23 -7 -12 -6 -13 4
-3 13 12 23 43 14 43 -2 0 -5 -2 -5 -5z"/>
<path d="M2799 473 c-13 -16 -12 -17 4 -4 9 7 17 15 17 17 0 8 -8 3 -21 -13z"/>
<path d="M2901 474 c0 -11 3 -14 6 -6 3 7 2 16 -1 19 -3 4 -6 -2 -5 -13z"/>
<path d="M4071 473 c7 -12 15 -20 18 -17 3 2 -3 12 -13 22 -17 16 -18 16 -5
-5z"/>
<path d="M4150 478 c0 -4 4 -8 9 -8 6 0 12 4 15 8 3 5 -1 9 -9 9 -8 0 -15 -4
-15 -9z"/>
<path d="M2833 465 c0 -8 4 -12 9 -9 5 3 6 10 3 15 -9 13 -12 11 -12 -6z"/>
<path d="M2964 455 c-4 -8 -11 -12 -18 -8 -6 3 -7 2 -3 -2 14 -16 36 -14 30 3
-5 11 -3 13 7 7 9 -5 11 -4 6 3 -10 16 -15 15 -22 -3z"/>
<path d="M4030 451 c-8 -15 -7 -19 5 -17 8 1 21 8 28 16 9 11 8 11 -7 0 -18
-14 -19 -13 -13 3 9 23 0 22 -13 -2z"/>
<path d="M3990 451 c0 -7 -4 -10 -9 -6 -5 3 -13 0 -17 -6 -4 -8 -3 -9 4 -5 7
4 12 1 12 -6 0 -8 5 -6 11 5 6 10 8 21 5 24 -3 4 -6 1 -6 -6z"/>
<path d="M4133 445 c0 -8 4 -12 9 -9 5 3 6 10 3 15 -9 13 -12 11 -12 -6z"/>
<path d="M3005 440 c3 -5 8 -10 11 -10 2 0 4 5 4 10 0 6 -5 10 -11 10 -5 0 -7
-4 -4 -10z"/>
<path d="M3030 430 c0 -5 5 -10 11 -10 5 0 7 5 4 10 -3 6 -8 10 -11 10 -2 0
-4 -4 -4 -10z"/>
<path d="M2973 406 c0 -8 11 -12 29 -11 15 1 31 -1 34 -6 3 -5 11 -9 17 -9 17
1 -25 24 -43 25 -8 0 -20 3 -26 7 -6 4 -11 1 -11 -6z"/>
<path d="M3955 410 c-4 -6 -11 -8 -16 -5 -5 4 -9 1 -9 -4 0 -16 16 -13 30 4 7
8 10 15 7 15 -3 0 -9 -5 -12 -10z"/>
<path d="M3106 398 c3 -5 10 -6 15 -3 13 9 11 12 -6 12 -8 0 -12 -4 -9 -9z"/>
<path d="M3135 391 c-3 -5 0 -13 6 -17 8 -5 9 -3 4 6 -6 9 -1 10 16 5 19 -5
21 -4 9 4 -19 13 -27 14 -35 2z"/>
<path d="M2873 375 c0 -8 4 -12 9 -9 5 3 6 10 3 15 -9 13 -12 11 -12 -6z"/>
<path d="M3216 377 c3 -10 9 -15 12 -12 3 3 0 11 -7 18 -10 9 -11 8 -5 -6z"/>
<path d="M3113 367 c0 -8 6 -14 14 -14 9 0 10 4 2 14 -6 7 -12 13 -14 13 -1 0
-2 -6 -2 -13z"/>
<path d="M3771 371 c-8 -5 -9 -11 -3 -15 5 -3 12 1 16 9 6 17 6 18 -13 6z"/>
<path d="M3875 370 c-3 -6 1 -7 9 -4 18 7 21 14 7 14 -6 0 -13 -4 -16 -10z"/>
<path d="M3170 359 c0 -5 5 -7 10 -4 6 3 10 8 10 11 0 2 -4 4 -10 4 -5 0 -10
-5 -10 -11z"/>
<path d="M3240 361 c0 -5 7 -12 16 -15 14 -5 15 -4 4 9 -14 17 -20 19 -20 6z"/>
<path d="M3327 359 c7 -7 15 -10 18 -7 3 3 -2 9 -12 12 -14 6 -15 5 -6 -5z"/>
<path d="M3660 359 c-13 -9 -12 -10 3 -5 20 6 21 3 6 -27 -9 -20 -9 -20 4 -5
8 10 18 14 22 10 4 -4 2 3 -4 16 -14 26 -12 25 -31 11z"/>
<path d="M3815 361 c-3 -5 0 -13 6 -17 7 -4 9 -3 5 4 -3 5 0 13 6 15 9 4 10 6
1 6 -6 1 -14 -3 -18 -8z"/>
<path d="M3985 360 c-3 -6 1 -7 9 -4 18 7 21 14 7 14 -6 0 -13 -4 -16 -10z"/>
<path d="M3313 335 c0 -7 6 -11 14 -8 7 3 13 6 13 8 0 2 -6 5 -13 8 -8 3 -14
-1 -14 -8z"/>
<path d="M3708 328 c-10 -10 -14 -18 -9 -18 10 0 36 29 30 34 -2 1 -12 -6 -21
-16z"/>
<path d="M3868 343 c6 -2 18 -2 25 0 6 3 1 5 -13 5 -14 0 -19 -2 -12 -5z"/>
<path d="M3096 327 c3 -10 9 -15 12 -12 3 3 0 11 -7 18 -10 9 -11 8 -5 -6z"/>
<path d="M3176 331 c14 -15 54 -22 54 -10 0 6 -6 9 -12 6 -7 -2 -22 0 -33 6
-15 7 -17 7 -9 -2z"/>
<path d="M3350 336 c0 -2 7 -9 15 -16 13 -11 14 -10 9 4 -5 14 -24 23 -24 12z"/>
<path d="M3395 330 c3 -5 8 -10 11 -10 2 0 4 5 4 10 0 6 -5 10 -11 10 -5 0 -7
-4 -4 -10z"/>
<path d="M3427 327 c-3 -8 1 -14 9 -14 16 0 19 13 5 21 -5 3 -11 0 -14 -7z"/>
<path d="M3597 333 c-11 -11 -8 -20 7 -20 8 0 12 6 9 14 -6 15 -7 15 -16 6z"/>
<path d="M3630 329 c0 -5 5 -7 10 -4 6 3 10 8 10 11 0 2 -4 4 -10 4 -5 0 -10
-5 -10 -11z"/>
<path d="M3771 333 c-1 -18 13 -23 29 -11 12 8 12 9 -2 5 -9 -3 -19 -1 -22 6
-3 9 -5 9 -5 0z"/>
<path d="M2994 322 c4 -3 14 -7 22 -8 9 -1 13 0 10 4 -4 3 -14 7 -22 8 -9 1
-13 0 -10 -4z"/>
<path d="M3274 301 c0 -16 4 -27 8 -25 4 2 5 14 3 26 -7 32 -13 32 -11 -1z"/>
<path d="M3740 326 c0 -2 8 -10 18 -17 15 -13 16 -12 3 4 -13 16 -21 21 -21
13z"/>
<path d="M3866 322 c-3 -5 1 -9 9 -9 8 0 12 4 9 9 -3 4 -7 8 -9 8 -2 0 -6 -4
-9 -8z"/>
<path d="M3475 301 c-9 -15 15 -25 28 -12 9 9 7 10 -7 5 -13 -5 -17 -4 -12 4
4 7 5 12 2 12 -3 0 -7 -4 -11 -9z"/>
<path d="M3553 289 c-2 -23 3 -25 10 -4 4 8 3 16 -1 19 -4 3 -9 -4 -9 -15z"/>
<path d="M3827 299 c7 -7 15 -10 18 -7 3 3 -2 9 -12 12 -14 6 -15 5 -6 -5z"/>
<path d="M3390 286 c0 -2 7 -7 16 -10 8 -3 12 -2 9 4 -6 10 -25 14 -25 6z"/>
<path d="M3450 281 c0 -6 4 -13 10 -16 6 -3 7 1 4 9 -7 18 -14 21 -14 7z"/>
<path d="M3625 280 c-3 -6 1 -7 9 -4 18 7 21 14 7 14 -6 0 -13 -4 -16 -10z"/>
<path d="M3776 278 c3 -5 10 -6 15 -3 13 9 11 12 -6 12 -8 0 -12 -4 -9 -9z"/>
<path d="M3675 271 c-3 -5 -2 -12 3 -15 5 -3 9 1 9 9 0 17 -3 19 -12 6z"/>
<path d="M3815 260 c3 -5 8 -10 11 -10 2 0 4 5 4 10 0 6 -5 10 -11 10 -5 0 -7
-4 -4 -10z"/>
<path d="M3573 245 c0 -8 4 -15 9 -15 4 0 8 4 8 9 0 6 -4 12 -8 15 -5 3 -9 -1
-9 -9z"/>
<path d="M3450 240 c0 -5 5 -10 11 -10 5 0 7 5 4 10 -3 6 -8 10 -11 10 -2 0
-4 -4 -4 -10z"/>
<path d="M3631 233 c7 -12 15 -20 18 -17 3 2 -3 12 -13 22 -17 16 -18 16 -5
-5z"/>
<path d="M3750 239 c0 -5 5 -7 10 -4 6 3 10 8 10 11 0 2 -4 4 -10 4 -5 0 -10
-5 -10 -11z"/>
<path d="M3510 199 c0 -5 5 -7 10 -4 6 3 10 8 10 11 0 2 -4 4 -10 4 -5 0 -10
-5 -10 -11z"/>
</g>
</svg>
